<svg xmlns="http://www.w3.org/2000/svg" xmlns:xlink="http://www.w3.org/1999/xlink" width="107.075" height="95.622" viewBox="0 0 107.075 95.622">
  <defs>
    <clipPath id="clip-path">
      <rect id="Rect치ngulo_401137" data-name="Rect치ngulo 401137" width="39.866" height="53.112" fill="#f3f9ff"/>
    </clipPath>
  </defs>
  <g id="Grupo_1074834" data-name="Grupo 1074834" transform="translate(-1272.823 -398.532)">
    <path id="Uni칩n_4" data-name="Uni칩n 4" d="M76.177,93.263a49.434,49.434,0,0,1-4.36-4.735C63.263,77.3,50.6,78.289,37.594,79.189c-9.715.669-19.614,1.293-28.132-3.273A21.286,21.286,0,0,1,1.069,63.06,48.507,48.507,0,0,1,0,52.4,53.18,53.18,0,0,1,32.824,3.659a52.045,52.045,0,0,1,10-3.02A49.6,49.6,0,0,1,52.943.044,56.55,56.55,0,0,1,63.2,1.435,50.451,50.451,0,0,1,82.8,11.963a59.873,59.873,0,0,1,7.919,8.2c10.6,14.334,17.835,31.232,14.545,49.1C102.484,80.041,94.3,94.621,82.5,94.621A16.134,16.134,0,0,1,76.177,93.263Z" transform="translate(1379.398 493.654) rotate(180)" fill="#12405a" stroke="rgba(0,0,0,0)" stroke-miterlimit="10" stroke-width="1"/>
    <g id="Grupo_1099324" data-name="Grupo 1099324" transform="translate(1307.134 425.108)">
      <g id="Grupo_1099323" data-name="Grupo 1099323" clip-path="url(#clip-path)">
        <path id="Trazado_873439" data-name="Trazado 873439" d="M0,29.941Q0,21.951,0,13.96c0-4.42,2.628-7.29,7.06-7.249A5.08,5.08,0,0,0,12.1,4.1c4-6.025,13.04-5.239,16.554,1.234a2.051,2.051,0,0,0,2.243,1.337,12.145,12.145,0,0,1,2.915.106c3.768.588,5.978,2.965,6,6.767C39.876,24.42,39.9,35.3,39.8,46.172c-.039,4.415-2.841,6.938-7.232,6.939q-12.651,0-25.3,0C2.723,53.111.006,50.375,0,45.789Q0,37.865,0,29.941M16.469,42.417a2.576,2.576,0,0,0,2.057-.82Q25.064,35.053,31.6,28.511a2.46,2.46,0,0,0,.762-2.657c-.684-2.014-2.931-2.434-4.6-.789-3.443,3.4-6.872,6.806-10.248,10.268-.756.775-1.2.716-1.886-.025-1.173-1.27-2.407-2.487-3.66-3.679a2.7,2.7,0,0,0-3.921-.153,2.633,2.633,0,0,0,.251,3.8c2.047,2.093,4.134,4.148,6.2,6.221a2.7,2.7,0,0,0,1.965.916M23.356,9.884A3.3,3.3,0,0,0,19.84,6.545a3.193,3.193,0,0,0-3.325,3.361,3.31,3.31,0,0,0,3.416,3.453,3.372,3.372,0,0,0,3.424-3.476" transform="translate(0 0)" fill="#f3f9ff"/>
      </g>
    </g>
  </g>
</svg>
