<svg xmlns="http://www.w3.org/2000/svg" width="47" height="47" viewBox="0 0 47 47">
  <g id="Group_1099500" data-name="Group 1099500" transform="translate(-180 -1983.477)">
    <circle id="Ellipse_6022" data-name="Ellipse 6022" cx="23.5" cy="23.5" r="23.5" transform="translate(180 1983.477)" fill="#0d599b"/>
    <g id="computadora-de-escritorio" transform="translate(189.318 1992.794)">
      <path id="Path_615716" data-name="Path 615716" d="M19.946,2.216,13.574.049a.9.9,0,0,0-.585,0L6.618,2.216A.909.909,0,0,0,6,3.078V7.954c0,5.952,6.643,8.845,6.926,8.965a.926.926,0,0,0,.356.072.905.905,0,0,0,.356-.073c.283-.119,6.926-3.012,6.926-8.964V3.078a.909.909,0,0,0-.618-.862Zm-2.676,4.6-3.337,4.248a1.21,1.21,0,0,1-.835.458.989.989,0,0,1-.119.006,1.2,1.2,0,0,1-.789-.292l-2.124-1.82a1.213,1.213,0,1,1,1.578-1.842l1.163,1,2.555-3.251a1.214,1.214,0,0,1,1.909,1.5Z" transform="translate(1.282 0.001)" fill="#fff"/>
      <path id="Path_615717" data-name="Path 615717" d="M27,4H24.273V6.427H26.7v13.35H2.427V6.427H4.855V4H2.124A2.134,2.134,0,0,0,0,6.124V22.508a2.134,2.134,0,0,0,2.124,2.124h9.294a5.487,5.487,0,0,1-1.532,2.6.607.607,0,0,0,.43,1.036h8.5a.607.607,0,0,0,.43-1.036,5.625,5.625,0,0,1-1.547-2.6H27a2.134,2.134,0,0,0,2.124-2.124V6.124A2.134,2.134,0,0,0,27,4Z" transform="translate(0 0.855)" fill="#fff"/>
    </g>
  </g>
</svg>
