<svg xmlns="http://www.w3.org/2000/svg" xmlns:xlink="http://www.w3.org/1999/xlink" width="145" height="145" viewBox="0 0 145 145">
  <defs>
    <clipPath id="clip-path">
      <rect id="Rectángulo_400938" data-name="Rectángulo 400938" width="145" height="145" transform="translate(-0.371 -0.371)" fill="none"/>
    </clipPath>
    <clipPath id="clip-path-2">
      <path id="Trazado_615713" data-name="Trazado 615713" d="M42.094,5.78C21.288,13.49,5.34,32.184,1.4,53.84A70.4,70.4,0,0,0,0,67.764a71.363,71.363,0,0,0,57.247,69.941,60.893,60.893,0,0,0,13.887,1.244c17.642-1.995,28.415-18.893,27.253-36.109-.95-17.215-1.584-37.494,14.336-47.875,4.057-3.544,7.716-6.427,10.786-8.951,8.781-5.594,12.266-18.373,4.662-25.978C114.455,6.188,94.71,0,74.919,0A95.846,95.846,0,0,0,42.094,5.78" transform="translate(0 0)" fill="none"/>
    </clipPath>
    <clipPath id="clip-path-3">
      <rect id="Rectángulo_378821" data-name="Rectángulo 378821" width="149.362" height="149.363" fill="#80c85d"/>
    </clipPath>
    <clipPath id="clip-path-4">
      <path id="Trazado_615689" data-name="Trazado 615689" d="M82.5,82.182.324,0Q.107,2.038,0,4.085L78.421,82.5q2.041-.1,4.082-.321" transform="translate(0 0)" fill="#80c85d"/>
    </clipPath>
    <clipPath id="clip-path-5">
      <path id="Trazado_615690" data-name="Trazado 615690" d="M10.592,13.3a74.677,74.677,0,0,0,13.3,10.591L0,0A74.864,74.864,0,0,0,10.592,13.3" fill="#80c85d"/>
    </clipPath>
    <clipPath id="clip-path-6">
      <path id="Trazado_615691" data-name="Trazado 615691" d="M.982,5.386l56.85,56.852q2.672.584,5.38.976L0,0C.264,1.8.585,3.6.982,5.386" fill="#80c85d"/>
    </clipPath>
    <clipPath id="clip-path-7">
      <path id="Trazado_615692" data-name="Trazado 615692" d="M2.607,7.016,41.639,46.048a73.932,73.932,0,0,0,7.014,2.606L0,0A73.651,73.651,0,0,0,2.607,7.016" fill="#80c85d"/>
    </clipPath>
    <clipPath id="clip-path-8">
      <path id="Trazado_615693" data-name="Trazado 615693" d="M.185,4.59,69.277,73.682c1.529.112,3.059.169,4.587.187L0,0Q.022,2.3.185,4.59" fill="#80c85d"/>
    </clipPath>
    <clipPath id="clip-path-9">
      <path id="Trazado_615694" data-name="Trazado 615694" d="M95.088,91.687,3.4,0C2.26.31,1.125.643,0,1.008L94.081,95.089q.542-1.694,1.006-3.4" transform="translate(0 0)" fill="#80c85d"/>
    </clipPath>
    <clipPath id="clip-path-10">
      <path id="Trazado_615695" data-name="Trazado 615695" d="M89.5,85.8,3.709,0C2.468.206,1.23.435,0,.7L88.8,89.507c.265-1.235.5-2.468.7-3.711" transform="translate(0)" fill="#80c85d"/>
    </clipPath>
    <clipPath id="clip-path-11">
      <path id="Trazado_615696" data-name="Trazado 615696" d="M82.508,78.423,4.086,0C2.723.07,1.36.181,0,.324L82.185,82.506c.144-1.356.253-2.722.323-4.083" transform="translate(0)" fill="#80c85d"/>
    </clipPath>
    <clipPath id="clip-path-12">
      <path id="Trazado_615697" data-name="Trazado 615697" d="M99.492,96.357,3.133,0Q1.554.6,0,1.269L98.22,99.491q.671-1.555,1.272-3.133" transform="translate(0 0)" fill="#80c85d"/>
    </clipPath>
    <clipPath id="clip-path-13">
      <path id="Trazado_615698" data-name="Trazado 615698" d="M102.869,99.964,2.9,0Q1.435.718,0,1.508L101.362,102.87c.524-.962,1.027-1.927,1.507-2.906" transform="translate(0 0)" fill="#80c85d"/>
    </clipPath>
    <clipPath id="clip-path-14">
      <path id="Trazado_615699" data-name="Trazado 615699" d="M73.685,69.28,4.594.186Q2.3.023,0,0L73.872,73.873c-.017-1.533-.076-3.065-.187-4.593" fill="#80c85d"/>
    </clipPath>
    <clipPath id="clip-path-15">
      <path id="Trazado_615700" data-name="Trazado 615700" d="M46.046,41.633,7.021,2.608Q3.567,1.125,0,0L48.656,48.653a73.716,73.716,0,0,0-2.61-7.02" fill="#80c85d"/>
    </clipPath>
    <clipPath id="clip-path-16">
      <path id="Trazado_615701" data-name="Trazado 615701" d="M89.5,88.8.7,0Q.3,1.843,0,3.706L85.8,89.5q1.86-.3,3.7-.7" transform="translate(0)" fill="#80c85d"/>
    </clipPath>
    <clipPath id="clip-path-17">
      <path id="Trazado_615702" data-name="Trazado 615702" d="M13.3,10.593A75.056,75.056,0,0,0,0,0L23.9,23.9A74.829,74.829,0,0,0,13.3,10.593" fill="#80c85d"/>
    </clipPath>
    <clipPath id="clip-path-18">
      <path id="Trazado_615703" data-name="Trazado 615703" d="M62.234,57.831,5.383.982C3.6.585,1.8.264,0,0L63.215,63.212c-.264-1.8-.588-3.6-.982-5.381" fill="#80c85d"/>
    </clipPath>
    <clipPath id="clip-path-19">
      <path id="Trazado_615704" data-name="Trazado 615704" d="M105.322,102.629,2.693,0C1.785.551.885,1.121,0,1.714L103.6,105.321q.89-1.334,1.718-2.693" transform="translate(0)" fill="#80c85d"/>
    </clipPath>
    <clipPath id="clip-path-20">
      <path id="Trazado_615705" data-name="Trazado 615705" d="M105.32,103.6,1.716,0Q.826,1.327,0,2.688L102.633,105.32c.9-.549,1.8-1.124,2.688-1.716" transform="translate(0 0)" fill="#80c85d"/>
    </clipPath>
    <clipPath id="clip-path-21">
      <path id="Trazado_615706" data-name="Trazado 615706" d="M102.871,101.362,1.509,0Q.721,1.436,0,2.906L99.966,102.87c.977-.478,1.945-.984,2.9-1.508" transform="translate(0 0)" fill="#80c85d"/>
    </clipPath>
    <clipPath id="clip-path-22">
      <path id="Trazado_615707" data-name="Trazado 615707" d="M99.494,98.219,1.272,0C.823,1.037.4,2.086,0,3.14L96.354,99.5q1.581-.6,3.14-1.276" fill="#80c85d"/>
    </clipPath>
    <clipPath id="clip-path-23">
      <path id="Trazado_615708" data-name="Trazado 615708" d="M95.1,94.085,1.009,0Q.465,1.693,0,3.4L91.689,95.091c1.142-.31,2.274-.643,3.407-1.006" transform="translate(0 0)" fill="#80c85d"/>
    </clipPath>
    <clipPath id="clip-path-24">
      <path id="Trazado_615709" data-name="Trazado 615709" d="M106.92,105,1.919,0C1.26.822.617,1.649,0,2.49L104.437,106.924c.838-.619,1.663-1.261,2.483-1.919" fill="#80c85d"/>
    </clipPath>
    <clipPath id="clip-path-25">
      <path id="Trazado_615710" data-name="Trazado 615710" d="M107.705,105.407,2.3,0Q1.131,1.027,0,2.106l105.6,105.6q1.082-1.135,2.107-2.3" transform="translate(0 0)" fill="#80c85d"/>
    </clipPath>
    <clipPath id="clip-path-26">
      <path id="Trazado_615711" data-name="Trazado 615711" d="M107.708,105.6,2.107,0Q1.026,1.132,0,2.3L105.408,107.705q1.166-1.026,2.3-2.11" transform="translate(0 0)" fill="#80c85d"/>
    </clipPath>
    <clipPath id="clip-path-27">
      <path id="Trazado_615712" data-name="Trazado 615712" d="M106.923,104.437,2.49,0C1.647.619.822,1.262,0,1.922l105,105c.659-.817,1.3-1.649,1.922-2.488" transform="translate(0)" fill="#80c85d"/>
    </clipPath>
    <clipPath id="clip-path-28">
      <rect id="Rectángulo_401141" data-name="Rectángulo 401141" width="67.157" height="74.451" fill="#fff"/>
    </clipPath>
  </defs>
  <g id="img4" transform="translate(-308 -9535)">
    <g id="Enmascarar_grupo_1098657" data-name="Enmascarar grupo 1098657" transform="translate(308.371 9535.371)" clip-path="url(#clip-path)">
      <g id="Grupo_1098881" data-name="Grupo 1098881" transform="translate(2.822 137.033) rotate(-90)">
        <g id="Grupo_1074821" data-name="Grupo 1074821" transform="translate(0 0)" clip-path="url(#clip-path-2)">
          <g id="Grupo_1074820" data-name="Grupo 1074820" transform="translate(-5.306 -10.385)" opacity="0.5">
            <g id="Grupo_1074819" data-name="Grupo 1074819" style="isolation: isolate">
              <g id="Grupo_1074818" data-name="Grupo 1074818" clip-path="url(#clip-path-3)">
                <g id="Grupo_1074771" data-name="Grupo 1074771" transform="translate(0.091 66.768)">
                  <g id="Grupo_1074770" data-name="Grupo 1074770" transform="translate(0 0)" clip-path="url(#clip-path-4)">
                    <rect id="Rectángulo_378797" data-name="Rectángulo 378797" width="116.677" height="116.677" transform="translate(-41.252 41.252) rotate(-45)" fill="#80c85d"/>
                  </g>
                </g>
                <g id="Grupo_1074773" data-name="Grupo 1074773" transform="translate(11.276 114.191)">
                  <g id="Grupo_1074772" data-name="Grupo 1074772" clip-path="url(#clip-path-5)">
                    <rect id="Rectángulo_378798" data-name="Rectángulo 378798" width="33.792" height="33.792" transform="translate(-11.947 11.947) rotate(-45)" fill="#80c85d"/>
                  </g>
                </g>
                <g id="Grupo_1074775" data-name="Grupo 1074775" transform="translate(0.757 85.392)">
                  <g id="Grupo_1074774" data-name="Grupo 1074774" clip-path="url(#clip-path-6)">
                    <rect id="Rectángulo_378799" data-name="Rectángulo 378799" width="89.397" height="89.397" transform="translate(-31.607 31.607) rotate(-45)" fill="#80c85d"/>
                  </g>
                </g>
                <g id="Grupo_1074777" data-name="Grupo 1074777" transform="translate(3.468 97.24)">
                  <g id="Grupo_1074776" data-name="Grupo 1074776" clip-path="url(#clip-path-7)">
                    <rect id="Rectángulo_378800" data-name="Rectángulo 378800" width="68.807" height="68.807" transform="translate(-24.327 24.327) rotate(-45)" fill="#80c85d"/>
                  </g>
                </g>
                <g id="Grupo_1074779" data-name="Grupo 1074779" transform="translate(0 75.495)">
                  <g id="Grupo_1074778" data-name="Grupo 1074778" clip-path="url(#clip-path-8)">
                    <rect id="Rectángulo_378801" data-name="Rectángulo 378801" width="104.463" height="104.463" transform="translate(-36.934 36.934) rotate(-45)" fill="#80c85d"/>
                  </g>
                </g>
                <g id="Grupo_1074781" data-name="Grupo 1074781" transform="translate(51.676 2.598)">
                  <g id="Grupo_1074780" data-name="Grupo 1074780" transform="translate(0 0)" clip-path="url(#clip-path-9)">
                    <rect id="Rectángulo_378802" data-name="Rectángulo 378802" width="134.476" height="134.476" transform="translate(-47.545 47.545) rotate(-45)" fill="#80c85d"/>
                  </g>
                </g>
                <g id="Grupo_1074783" data-name="Grupo 1074783" transform="translate(58.885 0.974)">
                  <g id="Grupo_1074782" data-name="Grupo 1074782" transform="translate(0 0)" clip-path="url(#clip-path-10)">
                    <rect id="Rectángulo_378803" data-name="Rectángulo 378803" width="126.579" height="126.579" transform="translate(-44.754 44.754) rotate(-45)" fill="#80c85d"/>
                  </g>
                </g>
                <g id="Grupo_1074785" data-name="Grupo 1074785" transform="translate(66.763 0.091)">
                  <g id="Grupo_1074784" data-name="Grupo 1074784" transform="translate(0 0)" clip-path="url(#clip-path-11)">
                    <rect id="Rectángulo_378804" data-name="Rectángulo 378804" width="116.682" height="116.682" transform="translate(-41.253 41.253) rotate(-45)" fill="#80c85d"/>
                  </g>
                </g>
                <g id="Grupo_1074787" data-name="Grupo 1074787" transform="translate(45.036 4.835)">
                  <g id="Grupo_1074786" data-name="Grupo 1074786" transform="translate(0 0)" clip-path="url(#clip-path-12)">
                    <rect id="Rectángulo_378805" data-name="Rectángulo 378805" width="140.702" height="140.702" transform="translate(-49.745 49.745) rotate(-45)" fill="#80c85d"/>
                  </g>
                </g>
                <g id="Grupo_1074789" data-name="Grupo 1074789" transform="translate(38.894 7.6)">
                  <g id="Grupo_1074788" data-name="Grupo 1074788" transform="translate(0 0)" clip-path="url(#clip-path-13)">
                    <rect id="Rectángulo_378806" data-name="Rectángulo 378806" width="145.479" height="145.479" transform="translate(-51.435 51.435) rotate(-45)" fill="#80c85d"/>
                  </g>
                </g>
                <g id="Grupo_1074791" data-name="Grupo 1074791" transform="translate(75.49 0)">
                  <g id="Grupo_1074790" data-name="Grupo 1074790" clip-path="url(#clip-path-14)">
                    <rect id="Rectángulo_378807" data-name="Rectángulo 378807" width="104.472" height="104.472" transform="translate(-36.937 36.937) rotate(-45)" fill="#80c85d"/>
                  </g>
                </g>
                <g id="Grupo_1074793" data-name="Grupo 1074793" transform="translate(97.239 3.469)">
                  <g id="Grupo_1074792" data-name="Grupo 1074792" clip-path="url(#clip-path-15)">
                    <rect id="Rectángulo_378808" data-name="Rectángulo 378808" width="68.808" height="68.808" transform="translate(-24.327 24.327) rotate(-45)" fill="#80c85d"/>
                  </g>
                </g>
                <g id="Grupo_1074795" data-name="Grupo 1074795" transform="translate(0.974 58.889)">
                  <g id="Grupo_1074794" data-name="Grupo 1074794" transform="translate(0 0)" clip-path="url(#clip-path-16)">
                    <rect id="Rectángulo_378809" data-name="Rectángulo 378809" width="126.571" height="126.571" transform="translate(-44.75 44.75) rotate(-45)" fill="#80c85d"/>
                  </g>
                </g>
                <g id="Grupo_1074797" data-name="Grupo 1074797" transform="translate(114.191 11.275)">
                  <g id="Grupo_1074796" data-name="Grupo 1074796" clip-path="url(#clip-path-17)">
                    <rect id="Rectángulo_378810" data-name="Rectángulo 378810" width="33.797" height="33.797" transform="translate(-11.95 11.95) rotate(-45)" fill="#80c85d"/>
                  </g>
                </g>
                <g id="Grupo_1074799" data-name="Grupo 1074799" transform="translate(85.391 0.759)">
                  <g id="Grupo_1074798" data-name="Grupo 1074798" clip-path="url(#clip-path-18)">
                    <rect id="Rectángulo_378811" data-name="Rectángulo 378811" width="89.398" height="89.398" transform="translate(-31.606 31.606) rotate(-45)" fill="#80c85d"/>
                  </g>
                </g>
                <g id="Grupo_1074801" data-name="Grupo 1074801" transform="translate(33.202 10.84)">
                  <g id="Grupo_1074800" data-name="Grupo 1074800" transform="translate(0 0)" clip-path="url(#clip-path-19)">
                    <rect id="Rectángulo_378812" data-name="Rectángulo 378812" width="148.948" height="148.948" transform="translate(-52.661 52.661) rotate(-45)" fill="#80c85d"/>
                  </g>
                </g>
                <g id="Grupo_1074803" data-name="Grupo 1074803" transform="translate(10.838 33.203)">
                  <g id="Grupo_1074802" data-name="Grupo 1074802" transform="translate(0 0)" clip-path="url(#clip-path-20)">
                    <rect id="Rectángulo_378813" data-name="Rectángulo 378813" width="148.945" height="148.945" transform="translate(-52.66 52.66) rotate(-45)" fill="#80c85d"/>
                  </g>
                </g>
                <g id="Grupo_1074805" data-name="Grupo 1074805" transform="translate(7.598 38.894)" style="isolation: isolate">
                  <g id="Grupo_1074804" data-name="Grupo 1074804" transform="translate(0 0)" clip-path="url(#clip-path-21)">
                    <rect id="Rectángulo_378814" data-name="Rectángulo 378814" width="145.481" height="145.481" transform="translate(-51.435 51.435) rotate(-45)" fill="#80c85d"/>
                  </g>
                </g>
                <g id="Grupo_1074807" data-name="Grupo 1074807" transform="translate(4.835 45.035)">
                  <g id="Grupo_1074806" data-name="Grupo 1074806" transform="translate(0 0)" clip-path="url(#clip-path-22)">
                    <rect id="Rectángulo_378815" data-name="Rectángulo 378815" width="140.707" height="140.707" transform="translate(-49.748 49.748) rotate(-45)" fill="#80c85d"/>
                  </g>
                </g>
                <g id="Grupo_1074809" data-name="Grupo 1074809" transform="translate(2.595 51.673)">
                  <g id="Grupo_1074808" data-name="Grupo 1074808" transform="translate(0 0)" clip-path="url(#clip-path-23)">
                    <rect id="Rectángulo_378816" data-name="Rectángulo 378816" width="134.483" height="134.483" transform="translate(-47.546 47.546) rotate(-45)" fill="#80c85d"/>
                  </g>
                </g>
                <g id="Grupo_1074811" data-name="Grupo 1074811" transform="translate(14.507 27.931)">
                  <g id="Grupo_1074810" data-name="Grupo 1074810" transform="translate(0 0)" clip-path="url(#clip-path-24)">
                    <rect id="Rectángulo_378817" data-name="Rectángulo 378817" width="151.211" height="151.211" transform="translate(-53.462 53.462) rotate(-45)" fill="#80c85d"/>
                  </g>
                </g>
                <g id="Grupo_1074813" data-name="Grupo 1074813" transform="translate(23.065 18.592)">
                  <g id="Grupo_1074812" data-name="Grupo 1074812" transform="translate(0 0)" clip-path="url(#clip-path-25)">
                    <rect id="Rectángulo_378818" data-name="Rectángulo 378818" width="152.319" height="152.319" transform="translate(-53.853 53.853) rotate(-45)" fill="#80c85d"/>
                  </g>
                </g>
                <g id="Grupo_1074815" data-name="Grupo 1074815" transform="translate(18.59 23.067)">
                  <g id="Grupo_1074814" data-name="Grupo 1074814" transform="translate(0 0)" clip-path="url(#clip-path-26)">
                    <rect id="Rectángulo_378819" data-name="Rectángulo 378819" width="152.32" height="152.32" transform="translate(-53.853 53.853) rotate(-45)" fill="#80c85d"/>
                  </g>
                </g>
                <g id="Grupo_1074817" data-name="Grupo 1074817" transform="translate(27.933 14.505)">
                  <g id="Grupo_1074816" data-name="Grupo 1074816" transform="translate(0 0)" clip-path="url(#clip-path-27)">
                    <rect id="Rectángulo_378820" data-name="Rectángulo 378820" width="151.213" height="151.213" transform="translate(-53.462 53.462) rotate(-45)" fill="#80c85d"/>
                  </g>
                </g>
              </g>
            </g>
          </g>
        </g>
      </g>
    </g>
    <ellipse id="Elipse_11492" data-name="Elipse 11492" cx="44.5" cy="47" rx="44.5" ry="47" transform="translate(354 9540)" fill="#a9eaee" opacity="0.6"/>
    <path id="Unión_5" data-name="Unión 5" d="M11.627,64.979a57,57,0,1,1,57,57A57,57,0,0,1,11.627,64.979Z" transform="translate(311.373 9542.021)" fill="#12405a" stroke="rgba(0,0,0,0)" stroke-miterlimit="10" stroke-width="1" opacity="0.95"/>
    <g id="Grupo_1099333" data-name="Grupo 1099333" transform="translate(352.503 9566.427)">
      <g id="Grupo_1099332" data-name="Grupo 1099332" clip-path="url(#clip-path-28)">
        <path id="Trazado_873451" data-name="Trazado 873451" d="M2.363,42q0,13.566,0,27.132c0,2.316.658,2.976,2.962,2.976q20.727,0,41.455,0c2.212,0,2.9-.7,2.906-2.922q0-4.483,0-8.966c0-.844.111-1.628,1.183-1.623s1.159.812,1.157,1.644c-.006,3.183.013,6.366-.007,9.549a4.413,4.413,0,0,1-4.6,4.643q-21.426.031-42.852,0a4.4,4.4,0,0,1-4.545-4.58C-.02,66.439.01,63.023.01,59.607Q.01,37.132,0,14.658a5.072,5.072,0,0,1,1.164-3.667A4.676,4.676,0,0,1,4.835,9.546c2.911,0,5.823-.02,8.733.014a1.115,1.115,0,0,0,1.314-.911A3.407,3.407,0,0,1,18.273,6.29a16.25,16.25,0,0,1,2.211,0c.844.071,1.083-.281,1.02-1.071A4.734,4.734,0,0,1,23.1.936C24.607-.336,26.376-.09,27.958.383c1.688.5,2.467,2.048,2.615,3.8.177,2.1.15,2.138,2.184,2.088,2.183-.054,3.929.507,4.566,2.867.169.627.674.414,1.053.416,2.872.018,5.745,0,8.617.012,3.326.01,5.023,1.7,5.029,5.005,0,1.514-.007,3.028,0,4.542.005.806-.285,1.428-1.156,1.431s-1.186-.592-1.182-1.409c.008-1.63.018-3.261,0-4.891-.022-1.555-.715-2.311-2.271-2.333-3.066-.044-6.133,0-9.2-.029-.682-.007-.891.25-.836.889a9.16,9.16,0,0,1,0,1.4,2.269,2.269,0,0,1-2.324,2.272q-9.025.04-18.049,0c-1.475-.008-2.3-1-2.355-2.61-.061-1.934-.061-1.935-2.016-1.934-2.562,0-5.124-.014-7.685.006-1.908.015-2.575.7-2.576,2.625q-.01,13.741,0,27.481M25.991,14.123c2.715,0,5.431-.021,8.145.015.69.009.978-.146.93-.894a29.893,29.893,0,0,1-.01-3.024,1.345,1.345,0,0,0-1.521-1.593c-.969-.01-1.941.024-2.908-.02A2.247,2.247,0,0,1,28.26,6.173c-.013-.582.023-1.165-.013-1.745a2.186,2.186,0,0,0-2.235-2.189,2.105,2.105,0,0,0-2.167,2.219c-.02.426,0,.853-.008,1.28-.019,2.008-.831,2.85-2.795,2.883-.853.014-1.707,0-2.56.008a1.319,1.319,0,0,0-1.491,1.508c.016,1.008.043,2.019-.014,3.024-.044.766.226.992.986.98,2.676-.042,5.352-.016,8.028-.016" transform="translate(0 0)" fill="#fff"/>
        <path id="Trazado_873452" data-name="Trazado 873452" d="M22.919,87.394q0-12.923,0-25.845c0-1.849.165-2.013,1.98-2.017.97,0,1.94.01,2.91,0a1.1,1.1,0,0,1,1.245,1.094c.03.72-.488,1.1-1.166,1.227a4.01,4.01,0,0,1-.7.019c-1.917.018-1.917.017-1.917,1.881q0,23.924,0,47.849c0,1.5,0,1.5,1.5,1.5,11.254,0,22.508-.023,33.762.033,1.226.006,1.481-.351,1.431-1.483-.091-2.053-.015-4.112-.031-6.169-.006-.873.205-1.637,1.22-1.606.935.028,1.125.772,1.121,1.593-.013,2.755,0,5.51-.008,8.266-.005,1.308-.41,1.7-1.77,1.7q-9.2.01-18.394,0-9.6,0-19.21,0c-1.654,0-1.974-.318-1.975-1.97q-.005-13.039,0-26.078" transform="translate(-17.58 -45.665)" fill="#fff"/>
        <path id="Trazado_873453" data-name="Trazado 873453" d="M164.685,101.056a16.3,16.3,0,1,1-16.347,16.108,16.288,16.288,0,0,1,16.347-16.108m-.053,2.345A13.952,13.952,0,1,0,178.6,117.369,13.955,13.955,0,0,0,164.632,103.4" transform="translate(-113.784 -77.516)" fill="#fff"/>
        <path id="Trazado_873454" data-name="Trazado 873454" d="M102.022,251.933q-4.367,0-8.733,0a3.364,3.364,0,0,1-.926-.043,1.134,1.134,0,0,1-.949-1.27,1.043,1.043,0,0,1,1.083-1c.659-.026,1.319-.014,1.979-.014,5.512,0,11.023.009,16.534-.009.859,0,1.546.257,1.531,1.168-.015.886-.7,1.222-1.553,1.174-.232-.013-.466,0-.7,0h-8.267" transform="translate(-70.112 -191.453)" fill="#fff"/>
        <path id="Trazado_873455" data-name="Trazado 873455" d="M99.369,97.149q3.143,0,6.287,0c.81,0,1.574.2,1.6,1.13.026,1.019-.784,1.215-1.628,1.215q-6.287,0-12.573,0c-.776,0-1.562-.135-1.583-1.127-.023-1.065.779-1.209,1.614-1.211,2.1-.006,4.191,0,6.287,0" transform="translate(-70.161 -74.518)" fill="#fff"/>
        <path id="Trazado_873456" data-name="Trazado 873456" d="M97.556,221.322c-1.552,0-3.1.007-4.655,0-.764,0-1.436-.216-1.459-1.128s.641-1.191,1.4-1.2q4.771-.03,9.542,0c.733,0,1.346.339,1.356,1.137.01.867-.618,1.183-1.413,1.186-1.59.007-3.181,0-4.771,0" transform="translate(-70.141 -167.973)" fill="#fff"/>
        <path id="Trazado_873457" data-name="Trazado 873457" d="M178.434,63c0,.773.03,1.547-.009,2.318a1.1,1.1,0,0,1-1.15,1.191c-.747,0-1.1-.487-1.155-1.188-.032-.384-.011-.773-.011-1.159,0-2.312,0-2.312-2.256-2.316-.232,0-.464,0-.7,0-.8-.026-1.41-.415-1.4-1.226.01-.833.631-1.141,1.45-1.122,1.275.03,2.551.023,3.826,0,.979-.015,1.415.464,1.408,1.414-.006.7,0,1.391,0,2.087h-.006" transform="translate(-131.748 -45.639)" fill="#fff"/>
        <path id="Trazado_873458" data-name="Trazado 873458" d="M96.7,127.694c1.2,0,2.4.009,3.6,0,.771-.009,1.331.312,1.361,1.1.032.846-.534,1.235-1.351,1.236-2.513.005-5.027.011-7.54-.006-.745-.005-1.294-.359-1.3-1.166s.527-1.151,1.291-1.155c1.315-.007,2.629,0,3.944,0" transform="translate(-70.155 -97.945)" fill="#fff"/>
        <path id="Trazado_873459" data-name="Trazado 873459" d="M95.868,160.4c-1.008,0-2.016.01-3.024,0-.792-.009-1.4-.306-1.389-1.2.011-.82.58-1.14,1.325-1.145,2.094-.013,4.188-.018,6.281,0,.751.008,1.282.357,1.266,1.192s-.577,1.13-1.318,1.143c-1.047.019-2.094,0-3.14.006" transform="translate(-70.151 -121.231)" fill="#fff"/>
        <path id="Trazado_873460" data-name="Trazado 873460" d="M95.86,190.868c-1.046,0-2.093.012-3.139-.005-.765-.013-1.285-.373-1.268-1.188a1.1,1.1,0,0,1,1.22-1.126c2.131-.024,4.263-.021,6.395,0,.76.006,1.273.37,1.256,1.2-.018.842-.573,1.12-1.324,1.125-1.046.006-2.093,0-3.139,0" transform="translate(-70.15 -144.615)" fill="#fff"/>
        <path id="Trazado_873461" data-name="Trazado 873461" d="M58.332,160.379a8.573,8.573,0,0,1-1.038-.007,1.151,1.151,0,0,1,.015-2.293c.573-.055,1.154-.026,1.732-.028.766,0,1.328.373,1.351,1.126.026.825-.551,1.215-1.366,1.225-.231,0-.462,0-.694,0Z" transform="translate(-43.149 -121.229)" fill="#fff"/>
        <path id="Trazado_873462" data-name="Trazado 873462" d="M58.268,97.213c1.507-.026,2.246.351,2.133,1.164-.182,1.308-1.247,1.147-2.172,1.157a6.394,6.394,0,0,1-.928-.043,1.063,1.063,0,0,1-1.059-1.151,1.077,1.077,0,0,1,1.1-1.122,7.878,7.878,0,0,1,.93-.006" transform="translate(-43.141 -74.559)" fill="#fff"/>
        <path id="Trazado_873463" data-name="Trazado 873463" d="M58.536,127.667c.691-.016,1.857-.161,1.857,1.151,0,1.284-1.146,1.2-2.088,1.183-.231,0-.462,0-.693,0-.8-.026-1.358-.341-1.333-1.232.024-.84.579-1.1,1.327-1.1h.93" transform="translate(-43.169 -97.919)" fill="#fff"/>
        <path id="Trazado_873464" data-name="Trazado 873464" d="M58.32,188.535c.193,0,.386.007.578,0,.861-.046,1.507.316,1.5,1.2,0,.818-.618,1.174-1.436,1.142-.5-.02-1,.011-1.5-.01-.708-.031-1.183-.352-1.193-1.121-.011-.821.48-1.164,1.24-1.2.269-.014.539,0,.809,0" transform="translate(-43.163 -144.613)" fill="#fff"/>
        <path id="Trazado_873465" data-name="Trazado 873465" d="M58.314,249.642c1.508,0,2.212.363,2.084,1.179-.2,1.273-1.224,1.168-2.161,1.148a6.336,6.336,0,0,1-.923-.021,1.108,1.108,0,0,1-1.063-1.261,1.036,1.036,0,0,1,1.138-1.044c.308-.01.616,0,.925,0" transform="translate(-43.144 -191.488)" fill="#fff"/>
        <path id="Trazado_873466" data-name="Trazado 873466" d="M58.288,221.3c-.271,0-.544.015-.814,0-.7-.045-1.2-.333-1.228-1.112s.463-1.123,1.155-1.185a12.614,12.614,0,0,1,1.743-.012,1.15,1.15,0,0,1,1.248,1.123c.015.782-.523,1.16-1.29,1.191-.271.011-.543,0-.814,0v0" transform="translate(-43.143 -167.959)" fill="#fff"/>
        <path id="Trazado_873467" data-name="Trazado 873467" d="M198.691,140.69a6.138,6.138,0,0,1,2.76-5.126,4.2,4.2,0,0,0,1.76-3.83,2.93,2.93,0,0,0-3.289-2.833,2.9,2.9,0,0,0-3.125,2.872c0,.194-.006.388,0,.582.008.73-.311,1.2-1.072,1.244-.82.044-1.178-.433-1.256-1.2a5.242,5.242,0,0,1,5-5.822,5.662,5.662,0,0,1,5.668,3.064,6.821,6.821,0,0,1-1.251,6.835,8.644,8.644,0,0,1-1.034.936,4.05,4.05,0,0,0-1.8,3.8,1.228,1.228,0,0,1-.739,1.433,1.068,1.068,0,0,1-1.524-.8,5.768,5.768,0,0,1-.1-1.154" transform="translate(-149.143 -97.082)" fill="#fff"/>
        <path id="Trazado_873468" data-name="Trazado 873468" d="M215.959,205.794a1.139,1.139,0,1,1-2.276.021,1.139,1.139,0,0,1,2.276-.021" transform="translate(-163.908 -157.022)" fill="#fff"/>
      </g>
    </g>
  </g>
</svg>
